%TF.GenerationSoftware,KiCad,Pcbnew,(6.0.6-0)*%
%TF.CreationDate,2022-07-23T15:50:50+10:00*%
%TF.ProjectId,phanblok,7068616e-626c-46f6-9b2e-6b696361645f,rev?*%
%TF.SameCoordinates,Original*%
%TF.FileFunction,Copper,L2,Bot*%
%TF.FilePolarity,Positive*%
%FSLAX46Y46*%
G04 Gerber Fmt 4.6, Leading zero omitted, Abs format (unit mm)*
G04 Created by KiCad (PCBNEW (6.0.6-0)) date 2022-07-23 15:50:50*
%MOMM*%
%LPD*%
G01*
G04 APERTURE LIST*
%TA.AperFunction,ComponentPad*%
%ADD10C,1.400000*%
%TD*%
%TA.AperFunction,ViaPad*%
%ADD11C,0.800000*%
%TD*%
%TA.AperFunction,Conductor*%
%ADD12C,0.508000*%
%TD*%
G04 APERTURE END LIST*
D10*
%TO.P,J1,1,Pin_1*%
%TO.N,Net-(C1-Pad2)*%
X122174000Y-72644000D03*
%TD*%
%TO.P,J5,1,Pin_1*%
%TO.N,Net-(C2-Pad2)*%
X122174000Y-70612000D03*
%TD*%
%TO.P,J4,1,Pin_1*%
%TO.N,GND*%
X133858000Y-68580000D03*
%TD*%
%TO.P,J2,1,Pin_1*%
%TO.N,Net-(C1-Pad1)*%
X133858000Y-72644000D03*
%TD*%
%TO.P,J3,1,Pin_1*%
%TO.N,Net-(C2-Pad1)*%
X133858000Y-70612000D03*
%TD*%
%TO.P,J6,1,Pin_1*%
%TO.N,GND*%
X122174000Y-68580000D03*
%TD*%
D11*
%TO.N,Net-(C1-Pad1)*%
X128778000Y-73787000D03*
%TO.N,Net-(C1-Pad2)*%
X125730000Y-68453000D03*
%TO.N,GND*%
X134112000Y-74295000D03*
X127882612Y-74643500D03*
X123190000Y-74295000D03*
X127254000Y-66802000D03*
%TD*%
D12*
%TO.N,Net-(C1-Pad1)*%
X128778000Y-73787000D02*
X129921000Y-72644000D01*
X129921000Y-72644000D02*
X133858000Y-72644000D01*
%TO.N,Net-(C1-Pad2)*%
X125730000Y-68453000D02*
X125730000Y-69850000D01*
X122936000Y-72644000D02*
X122174000Y-72644000D01*
X125730000Y-69850000D02*
X122936000Y-72644000D01*
%TD*%
%TA.AperFunction,Conductor*%
%TO.N,GND*%
G36*
X134561621Y-65552502D02*
G01*
X134608114Y-65606158D01*
X134619500Y-65658500D01*
X134619500Y-67404433D01*
X134599498Y-67472554D01*
X134545842Y-67519047D01*
X134475568Y-67529151D01*
X134440250Y-67518628D01*
X134277719Y-67442839D01*
X134267429Y-67439093D01*
X134073878Y-67387231D01*
X134063091Y-67385329D01*
X133863475Y-67367865D01*
X133852525Y-67367865D01*
X133652909Y-67385329D01*
X133642122Y-67387231D01*
X133448571Y-67439093D01*
X133438277Y-67442841D01*
X133256677Y-67527521D01*
X133247189Y-67532999D01*
X133216752Y-67554311D01*
X133208377Y-67564788D01*
X133215446Y-67578236D01*
X134128115Y-68490905D01*
X134162141Y-68553217D01*
X134157076Y-68624032D01*
X134128115Y-68669095D01*
X133207059Y-69590151D01*
X133190234Y-69604269D01*
X133078224Y-69682699D01*
X132928699Y-69832224D01*
X132807411Y-70005442D01*
X132805090Y-70010420D01*
X132805088Y-70010423D01*
X132720367Y-70192108D01*
X132718044Y-70197090D01*
X132716622Y-70202398D01*
X132716621Y-70202400D01*
X132672503Y-70367050D01*
X132663314Y-70401345D01*
X132644884Y-70612000D01*
X132663314Y-70822655D01*
X132718044Y-71026910D01*
X132807411Y-71218558D01*
X132928699Y-71391776D01*
X133075828Y-71538905D01*
X133109854Y-71601217D01*
X133104789Y-71672032D01*
X133075828Y-71717095D01*
X132948328Y-71844595D01*
X132886016Y-71878621D01*
X132859233Y-71881500D01*
X129988376Y-71881500D01*
X129969426Y-71880067D01*
X129955027Y-71877876D01*
X129955021Y-71877876D01*
X129947792Y-71876776D01*
X129940500Y-71877369D01*
X129940497Y-71877369D01*
X129894817Y-71881085D01*
X129884602Y-71881500D01*
X129876475Y-71881500D01*
X129872839Y-71881924D01*
X129872837Y-71881924D01*
X129869385Y-71882327D01*
X129848076Y-71884811D01*
X129843756Y-71885238D01*
X129770574Y-71891191D01*
X129763612Y-71893447D01*
X129757624Y-71894643D01*
X129751667Y-71896051D01*
X129744393Y-71896899D01*
X129737511Y-71899397D01*
X129737507Y-71899398D01*
X129675393Y-71921945D01*
X129671289Y-71923355D01*
X129601425Y-71945987D01*
X129595162Y-71949787D01*
X129589620Y-71952325D01*
X129584144Y-71955067D01*
X129577259Y-71957566D01*
X129571135Y-71961581D01*
X129515868Y-71997815D01*
X129512200Y-72000130D01*
X129449419Y-72038227D01*
X129445212Y-72041943D01*
X129445208Y-72041946D01*
X129440995Y-72045668D01*
X129440969Y-72045638D01*
X129438041Y-72048236D01*
X129434687Y-72051040D01*
X129428565Y-72055054D01*
X129423532Y-72060367D01*
X129375013Y-72111585D01*
X129372635Y-72114028D01*
X128614483Y-72872179D01*
X128551586Y-72906330D01*
X128495712Y-72918206D01*
X128489682Y-72920891D01*
X128489681Y-72920891D01*
X128327278Y-72993197D01*
X128327276Y-72993198D01*
X128321248Y-72995882D01*
X128166747Y-73108134D01*
X128038960Y-73250056D01*
X127984567Y-73344267D01*
X127946975Y-73409379D01*
X127943473Y-73415444D01*
X127884458Y-73597072D01*
X127883768Y-73603633D01*
X127883768Y-73603635D01*
X127873017Y-73705924D01*
X127864496Y-73787000D01*
X127884458Y-73976928D01*
X127943473Y-74158556D01*
X128038960Y-74323944D01*
X128166747Y-74465866D01*
X128321248Y-74578118D01*
X128327276Y-74580802D01*
X128327278Y-74580803D01*
X128489681Y-74653109D01*
X128495712Y-74655794D01*
X128589113Y-74675647D01*
X128676056Y-74694128D01*
X128676061Y-74694128D01*
X128682513Y-74695500D01*
X128873487Y-74695500D01*
X128879939Y-74694128D01*
X128879944Y-74694128D01*
X128966887Y-74675647D01*
X129060288Y-74655794D01*
X129066319Y-74653109D01*
X129228722Y-74580803D01*
X129228724Y-74580802D01*
X129234752Y-74578118D01*
X129389253Y-74465866D01*
X129517040Y-74323944D01*
X129612527Y-74158556D01*
X129664665Y-73998093D01*
X129695403Y-73947935D01*
X130199933Y-73443405D01*
X130262245Y-73409379D01*
X130289028Y-73406500D01*
X132859233Y-73406500D01*
X132927354Y-73426502D01*
X132948328Y-73443405D01*
X133078224Y-73573301D01*
X133251442Y-73694589D01*
X133256420Y-73696910D01*
X133256423Y-73696912D01*
X133315035Y-73724243D01*
X133443090Y-73783956D01*
X133448398Y-73785378D01*
X133448400Y-73785379D01*
X133642030Y-73837262D01*
X133642032Y-73837262D01*
X133647345Y-73838686D01*
X133858000Y-73857116D01*
X134068655Y-73838686D01*
X134073968Y-73837262D01*
X134073970Y-73837262D01*
X134267600Y-73785379D01*
X134267602Y-73785378D01*
X134272910Y-73783956D01*
X134440250Y-73705924D01*
X134510442Y-73695263D01*
X134575254Y-73724243D01*
X134614111Y-73783663D01*
X134619500Y-73820119D01*
X134619500Y-75565500D01*
X134599498Y-75633621D01*
X134545842Y-75680114D01*
X134493500Y-75691500D01*
X121284500Y-75691500D01*
X121216379Y-75671498D01*
X121169886Y-75617842D01*
X121158500Y-75565500D01*
X121158500Y-73641767D01*
X121178502Y-73573646D01*
X121232158Y-73527153D01*
X121302432Y-73517049D01*
X121367012Y-73546543D01*
X121373595Y-73552672D01*
X121394224Y-73573301D01*
X121567442Y-73694589D01*
X121572420Y-73696910D01*
X121572423Y-73696912D01*
X121631035Y-73724243D01*
X121759090Y-73783956D01*
X121764398Y-73785378D01*
X121764400Y-73785379D01*
X121958030Y-73837262D01*
X121958032Y-73837262D01*
X121963345Y-73838686D01*
X122174000Y-73857116D01*
X122384655Y-73838686D01*
X122389968Y-73837262D01*
X122389970Y-73837262D01*
X122583600Y-73785379D01*
X122583602Y-73785378D01*
X122588910Y-73783956D01*
X122716965Y-73724243D01*
X122775577Y-73696912D01*
X122775580Y-73696910D01*
X122780558Y-73694589D01*
X122953776Y-73573301D01*
X123103301Y-73423776D01*
X123107981Y-73417093D01*
X123108827Y-73416444D01*
X123109995Y-73415052D01*
X123110304Y-73415311D01*
X123168205Y-73370919D01*
X123181615Y-73366052D01*
X123185711Y-73364645D01*
X123255575Y-73342013D01*
X123261838Y-73338213D01*
X123267380Y-73335675D01*
X123272856Y-73332933D01*
X123279741Y-73330434D01*
X123341132Y-73290185D01*
X123344800Y-73287870D01*
X123407581Y-73249773D01*
X123411786Y-73246059D01*
X123411789Y-73246057D01*
X123416005Y-73242333D01*
X123416031Y-73242362D01*
X123418962Y-73239762D01*
X123422316Y-73236958D01*
X123428435Y-73232946D01*
X123481989Y-73176413D01*
X123484366Y-73173972D01*
X126221528Y-70436810D01*
X126235941Y-70424423D01*
X126247665Y-70415795D01*
X126253564Y-70411454D01*
X126287979Y-70370945D01*
X126294909Y-70363429D01*
X126300653Y-70357685D01*
X126302927Y-70354811D01*
X126302933Y-70354804D01*
X126318372Y-70335289D01*
X126321163Y-70331885D01*
X126363945Y-70281528D01*
X126363948Y-70281524D01*
X126368684Y-70275949D01*
X126372012Y-70269432D01*
X126375389Y-70264368D01*
X126378616Y-70259144D01*
X126383160Y-70253400D01*
X126414242Y-70186896D01*
X126416147Y-70182999D01*
X126449543Y-70117596D01*
X126451284Y-70110482D01*
X126453416Y-70104748D01*
X126455344Y-70098952D01*
X126458444Y-70092320D01*
X126473395Y-70020440D01*
X126474365Y-70016156D01*
X126490469Y-69950342D01*
X126491804Y-69944888D01*
X126492500Y-69933670D01*
X126492537Y-69933672D01*
X126492773Y-69929773D01*
X126493163Y-69925402D01*
X126494652Y-69918243D01*
X126492546Y-69840423D01*
X126492500Y-69837014D01*
X126492500Y-68983071D01*
X126509381Y-68920071D01*
X126561223Y-68830279D01*
X126561224Y-68830278D01*
X126564527Y-68824556D01*
X126623542Y-68642928D01*
X126629581Y-68585475D01*
X132645865Y-68585475D01*
X132663329Y-68785091D01*
X132665231Y-68795878D01*
X132717093Y-68989429D01*
X132720841Y-68999723D01*
X132805521Y-69181323D01*
X132810999Y-69190811D01*
X132832311Y-69221248D01*
X132842788Y-69229623D01*
X132856236Y-69222554D01*
X133485978Y-68592812D01*
X133493592Y-68578868D01*
X133493461Y-68577035D01*
X133489210Y-68570420D01*
X132855514Y-67936724D01*
X132843739Y-67930294D01*
X132831724Y-67939590D01*
X132810999Y-67969189D01*
X132805521Y-67978677D01*
X132720841Y-68160277D01*
X132717093Y-68170571D01*
X132665231Y-68364122D01*
X132663329Y-68374909D01*
X132645865Y-68574525D01*
X132645865Y-68585475D01*
X126629581Y-68585475D01*
X126642814Y-68459565D01*
X126643504Y-68453000D01*
X126623542Y-68263072D01*
X126564527Y-68081444D01*
X126469040Y-67916056D01*
X126341253Y-67774134D01*
X126186752Y-67661882D01*
X126180724Y-67659198D01*
X126180722Y-67659197D01*
X126018319Y-67586891D01*
X126018318Y-67586891D01*
X126012288Y-67584206D01*
X125918887Y-67564353D01*
X125831944Y-67545872D01*
X125831939Y-67545872D01*
X125825487Y-67544500D01*
X125634513Y-67544500D01*
X125628061Y-67545872D01*
X125628056Y-67545872D01*
X125541113Y-67564353D01*
X125447712Y-67584206D01*
X125441682Y-67586891D01*
X125441681Y-67586891D01*
X125279278Y-67659197D01*
X125279276Y-67659198D01*
X125273248Y-67661882D01*
X125118747Y-67774134D01*
X124990960Y-67916056D01*
X124895473Y-68081444D01*
X124836458Y-68263072D01*
X124816496Y-68453000D01*
X124817186Y-68459565D01*
X124830420Y-68585475D01*
X124836458Y-68642928D01*
X124895473Y-68824556D01*
X124898776Y-68830278D01*
X124898777Y-68830279D01*
X124950619Y-68920071D01*
X124967500Y-68983071D01*
X124967500Y-69481972D01*
X124947498Y-69550093D01*
X124930595Y-69571067D01*
X123583721Y-70917941D01*
X123521409Y-70951967D01*
X123450594Y-70946902D01*
X123393758Y-70904355D01*
X123368947Y-70837835D01*
X123369105Y-70817864D01*
X123386637Y-70617475D01*
X123387116Y-70612000D01*
X123368686Y-70401345D01*
X123359497Y-70367050D01*
X123315379Y-70202400D01*
X123315378Y-70202398D01*
X123313956Y-70197090D01*
X123311633Y-70192108D01*
X123226912Y-70010423D01*
X123226910Y-70010420D01*
X123224589Y-70005442D01*
X123103301Y-69832224D01*
X122953776Y-69682699D01*
X122841766Y-69604269D01*
X122824941Y-69590151D01*
X122186812Y-68952022D01*
X122172868Y-68944408D01*
X122171035Y-68944539D01*
X122164420Y-68948790D01*
X121523059Y-69590151D01*
X121506234Y-69604269D01*
X121394224Y-69682699D01*
X121373595Y-69703328D01*
X121311283Y-69737354D01*
X121240468Y-69732289D01*
X121183632Y-69689742D01*
X121158821Y-69623222D01*
X121158500Y-69614233D01*
X121158500Y-69288480D01*
X121178502Y-69220359D01*
X121195405Y-69199385D01*
X121801978Y-68592812D01*
X121808356Y-68581132D01*
X122538408Y-68581132D01*
X122538539Y-68582965D01*
X122542790Y-68589580D01*
X123176486Y-69223276D01*
X123188261Y-69229706D01*
X123200276Y-69220410D01*
X123221001Y-69190811D01*
X123226479Y-69181323D01*
X123311159Y-68999723D01*
X123314907Y-68989429D01*
X123366769Y-68795878D01*
X123368671Y-68785091D01*
X123386135Y-68585475D01*
X123386135Y-68574525D01*
X123368671Y-68374909D01*
X123366769Y-68364122D01*
X123314907Y-68170571D01*
X123311159Y-68160277D01*
X123226479Y-67978677D01*
X123221001Y-67969189D01*
X123199689Y-67938752D01*
X123189212Y-67930377D01*
X123175764Y-67937446D01*
X122546022Y-68567188D01*
X122538408Y-68581132D01*
X121808356Y-68581132D01*
X121809592Y-68578868D01*
X121809461Y-68577035D01*
X121805210Y-68570420D01*
X121195405Y-67960615D01*
X121161379Y-67898303D01*
X121158500Y-67871520D01*
X121158500Y-67564788D01*
X121524377Y-67564788D01*
X121531446Y-67578236D01*
X122161188Y-68207978D01*
X122175132Y-68215592D01*
X122176965Y-68215461D01*
X122183580Y-68211210D01*
X122817276Y-67577514D01*
X122823706Y-67565739D01*
X122814410Y-67553724D01*
X122784811Y-67532999D01*
X122775323Y-67527521D01*
X122593723Y-67442841D01*
X122583429Y-67439093D01*
X122389878Y-67387231D01*
X122379091Y-67385329D01*
X122179475Y-67367865D01*
X122168525Y-67367865D01*
X121968909Y-67385329D01*
X121958122Y-67387231D01*
X121764571Y-67439093D01*
X121754277Y-67442841D01*
X121572677Y-67527521D01*
X121563189Y-67532999D01*
X121532752Y-67554311D01*
X121524377Y-67564788D01*
X121158500Y-67564788D01*
X121158500Y-65658500D01*
X121178502Y-65590379D01*
X121232158Y-65543886D01*
X121284500Y-65532500D01*
X134493500Y-65532500D01*
X134561621Y-65552502D01*
G37*
%TD.AperFunction*%
%TD*%
M02*
