%TF.GenerationSoftware,KiCad,Pcbnew,(6.0.6-0)*%
%TF.CreationDate,2022-07-23T15:50:50+10:00*%
%TF.ProjectId,phanblok,7068616e-626c-46f6-9b2e-6b696361645f,rev?*%
%TF.SameCoordinates,Original*%
%TF.FileFunction,Legend,Top*%
%TF.FilePolarity,Positive*%
%FSLAX46Y46*%
G04 Gerber Fmt 4.6, Leading zero omitted, Abs format (unit mm)*
G04 Created by KiCad (PCBNEW (6.0.6-0)) date 2022-07-23 15:50:50*
%MOMM*%
%LPD*%
G01*
G04 APERTURE LIST*
%ADD10C,0.150000*%
%ADD11C,0.120000*%
%ADD12R,1.000000X0.750000*%
%ADD13C,1.400000*%
%ADD14R,0.810000X0.860000*%
%ADD15R,1.200000X3.500000*%
%ADD16C,0.800000*%
G04 APERTURE END LIST*
D10*
%TO.C,D4*%
X132246000Y-65310000D02*
X134006000Y-65310000D01*
X132246000Y-66770000D02*
X134006000Y-66770000D01*
X134006000Y-66770000D02*
X134006000Y-66560000D01*
X134006000Y-65310000D02*
X134006000Y-65510000D01*
X132656000Y-65310000D02*
X132656000Y-66770000D01*
D11*
%TO.C,J1*%
X123074000Y-73594000D02*
X123074000Y-71744000D01*
X121224000Y-73594000D02*
X123074000Y-73594000D01*
X123074000Y-71744000D02*
X123074000Y-71694000D01*
X121224000Y-71694000D02*
X121224000Y-73594000D01*
X123074000Y-71694000D02*
X121224000Y-71694000D01*
D10*
%TO.C,R1*%
X120911000Y-75844000D02*
X121871000Y-75844000D01*
X120911000Y-74524000D02*
X120911000Y-75844000D01*
X123691000Y-74524000D02*
X123691000Y-75844000D01*
X123691000Y-75844000D02*
X122731000Y-75844000D01*
X121871000Y-74524000D02*
X120911000Y-74524000D01*
X122731000Y-74524000D02*
X123691000Y-74524000D01*
%TO.C,R4*%
X133174000Y-74524000D02*
X132214000Y-74524000D01*
X132214000Y-75844000D02*
X133174000Y-75844000D01*
X132214000Y-74524000D02*
X132214000Y-75844000D01*
X134994000Y-74524000D02*
X134994000Y-75844000D01*
X134994000Y-75844000D02*
X134034000Y-75844000D01*
X134034000Y-74524000D02*
X134994000Y-74524000D01*
D11*
%TO.C,J5*%
X121224000Y-69662000D02*
X121224000Y-71562000D01*
X123074000Y-71562000D02*
X123074000Y-69712000D01*
X121224000Y-71562000D02*
X123074000Y-71562000D01*
X123074000Y-69662000D02*
X121224000Y-69662000D01*
X123074000Y-69712000D02*
X123074000Y-69662000D01*
D10*
%TO.C,D3*%
X130644000Y-66770000D02*
X128884000Y-66770000D01*
X130644000Y-65310000D02*
X128884000Y-65310000D01*
X128884000Y-65310000D02*
X128884000Y-65520000D01*
X130234000Y-66770000D02*
X130234000Y-65310000D01*
X128884000Y-66770000D02*
X128884000Y-66570000D01*
%TO.C,C1*%
X125200000Y-67760000D02*
X127840000Y-67740000D01*
X122480000Y-74500000D02*
X123770000Y-74500000D01*
X127840000Y-73100000D02*
X126440000Y-74500000D01*
X127840000Y-67740000D02*
X127840000Y-73100000D01*
X121080000Y-67740000D02*
X121080000Y-73100000D01*
X126440000Y-74500000D02*
X125150000Y-74480000D01*
X123750000Y-67750000D02*
X121080000Y-67740000D01*
X121080000Y-73100000D02*
X122480000Y-74500000D01*
%TO.C,D2*%
X125261000Y-65310000D02*
X127021000Y-65310000D01*
X125671000Y-65310000D02*
X125671000Y-66770000D01*
X125261000Y-66770000D02*
X127021000Y-66770000D01*
X127021000Y-65310000D02*
X127021000Y-65510000D01*
X127021000Y-66770000D02*
X127021000Y-66560000D01*
%TO.C,R2*%
X129716000Y-75844000D02*
X130676000Y-75844000D01*
X127896000Y-75844000D02*
X127896000Y-74524000D01*
X128856000Y-75844000D02*
X127896000Y-75844000D01*
X127896000Y-74524000D02*
X128856000Y-74524000D01*
X130676000Y-75844000D02*
X130676000Y-74524000D01*
X130676000Y-74524000D02*
X129716000Y-74524000D01*
%TO.C,R3*%
X127882000Y-74524000D02*
X127882000Y-75844000D01*
X126922000Y-74524000D02*
X127882000Y-74524000D01*
X125102000Y-74524000D02*
X125102000Y-75844000D01*
X127882000Y-75844000D02*
X126922000Y-75844000D01*
X125102000Y-75844000D02*
X126062000Y-75844000D01*
X126062000Y-74524000D02*
X125102000Y-74524000D01*
D11*
%TO.C,J4*%
X132908000Y-69530000D02*
X134758000Y-69530000D01*
X134758000Y-67680000D02*
X134758000Y-67630000D01*
X134758000Y-69530000D02*
X134758000Y-67680000D01*
X132908000Y-67630000D02*
X132908000Y-69530000D01*
X134758000Y-67630000D02*
X132908000Y-67630000D01*
D10*
%TO.C,C2*%
X129465000Y-74500000D02*
X130755000Y-74500000D01*
X132185000Y-67760000D02*
X134825000Y-67740000D01*
X128065000Y-67740000D02*
X128065000Y-73100000D01*
X128065000Y-73100000D02*
X129465000Y-74500000D01*
X134825000Y-73100000D02*
X133425000Y-74500000D01*
X134825000Y-67740000D02*
X134825000Y-73100000D01*
X133425000Y-74500000D02*
X132135000Y-74480000D01*
X130735000Y-67750000D02*
X128065000Y-67740000D01*
D11*
%TO.C,J2*%
X134758000Y-73594000D02*
X134758000Y-71744000D01*
X132908000Y-71694000D02*
X132908000Y-73594000D01*
X132908000Y-73594000D02*
X134758000Y-73594000D01*
X134758000Y-71694000D02*
X132908000Y-71694000D01*
X134758000Y-71744000D02*
X134758000Y-71694000D01*
%TO.C,J3*%
X134758000Y-71562000D02*
X134758000Y-69712000D01*
X132908000Y-69662000D02*
X132908000Y-71562000D01*
X134758000Y-69712000D02*
X134758000Y-69662000D01*
X132908000Y-71562000D02*
X134758000Y-71562000D01*
X134758000Y-69662000D02*
X132908000Y-69662000D01*
D10*
%TO.C,D1*%
X121899000Y-65310000D02*
X121899000Y-65520000D01*
X123659000Y-65310000D02*
X121899000Y-65310000D01*
X121899000Y-66770000D02*
X121899000Y-66570000D01*
X123659000Y-66770000D02*
X121899000Y-66770000D01*
X123249000Y-66770000D02*
X123249000Y-65310000D01*
D11*
%TO.C,J6*%
X121224000Y-69530000D02*
X123074000Y-69530000D01*
X121224000Y-67630000D02*
X121224000Y-69530000D01*
X123074000Y-69530000D02*
X123074000Y-67680000D01*
X123074000Y-67680000D02*
X123074000Y-67630000D01*
X123074000Y-67630000D02*
X121224000Y-67630000D01*
%TD*%
%LPC*%
D12*
%TO.C,D4*%
X131926000Y-66040000D03*
X134266000Y-66040000D03*
%TD*%
D13*
%TO.C,J1*%
X122174000Y-72644000D03*
%TD*%
D14*
%TO.C,R1*%
X123051000Y-75184000D03*
X121551000Y-75184000D03*
%TD*%
%TO.C,R4*%
X134354000Y-75184000D03*
X132854000Y-75184000D03*
%TD*%
D13*
%TO.C,J5*%
X122174000Y-70612000D03*
%TD*%
D12*
%TO.C,D3*%
X130964000Y-66040000D03*
X128624000Y-66040000D03*
%TD*%
D15*
%TO.C,C1*%
X124460000Y-73790000D03*
X124460000Y-68450000D03*
%TD*%
D12*
%TO.C,D2*%
X124941000Y-66040000D03*
X127281000Y-66040000D03*
%TD*%
D14*
%TO.C,R2*%
X128536000Y-75184000D03*
X130036000Y-75184000D03*
%TD*%
%TO.C,R3*%
X127242000Y-75184000D03*
X125742000Y-75184000D03*
%TD*%
D13*
%TO.C,J4*%
X133858000Y-68580000D03*
%TD*%
D15*
%TO.C,C2*%
X131445000Y-73790000D03*
X131445000Y-68450000D03*
%TD*%
D13*
%TO.C,J2*%
X133858000Y-72644000D03*
%TD*%
%TO.C,J3*%
X133858000Y-70612000D03*
%TD*%
D12*
%TO.C,D1*%
X123979000Y-66040000D03*
X121639000Y-66040000D03*
%TD*%
D13*
%TO.C,J6*%
X122174000Y-68580000D03*
%TD*%
D16*
X128778000Y-73787000D03*
X125730000Y-68453000D03*
X134112000Y-74295000D03*
X127882612Y-74643500D03*
X123190000Y-74295000D03*
X127254000Y-66802000D03*
M02*
